<?xml version="1.0" encoding="UTF-8"?>
<svg width="1200pt" height="1200pt" version="1.1" viewBox="0 0 1200 1200" xmlns="http://www.w3.org/2000/svg">


  
 <g >
  <path fill="black"  d="m1139.6 575.04c-1.8711-8.125-10.367-10.645-14.184-11.629-87.961-32.52-171.05-47.172-241.4-56.988-21.422-63.852-68.148-122.11-129.05-160.6-62.652-39.602-141.42-58.98-216.13-53.172-25.848 2.0156-47.41 6.6719-65.953 14.242-43.43 17.746-72.77 52.441-93.469 80.676-41.566 56.699-60.445 107.93-57.707 156.6l0.058594 1.2227c0.011718 0.17969 0.011718 0.34766 0.023437 0.51562-80.258 13.922-165.46 31.766-252.11 73.199-0.38281 0.19141-0.76953 0.39453-1.1289 0.63672-1.3555 0.88672-8.1836 5.6992-8.5664 13.871-0.14453 3 0.5625 8.7617 6.793 13.715 74.449 60.324 168.93 101.04 285.55 122.82 24.781 52.105 106.08 123.24 166.01 133.2 1.4141 0.23828 2.8203 0.43359 4.2109 0.60156 102.59 12.254 201.13-1.4023 277.48-38.461 31.402-15.254 93.07-88.859 99.984-119.33 0.20312-0.92578 0.23828-1.8477 0.19141-2.7461 82.691-31.273 159.67-80.965 226.15-146.65 8.5469-7.2422 15.266-12.988 13.25-21.727zm-743.93-175.54c19.141-26.102 46.094-58.105 84.84-73.934 16.57-6.7695 36.156-10.957 59.891-12.805 70.465-5.4727 144.74 12.793 203.8 50.113 56.316 35.594 99.637 89.074 119.93 147.71-145.75 75.086-314.57 87.984-515.77 39.422-4.0195-1.4023-5.6523-2.3633-6.2539-2.7969-0.097656-0.68359-0.15625-1.8711-0.19141-2.7969l-0.070313-1.3555c-2.4727-43.824 15.133-90.777 53.832-143.55zm395.53 447.86c-72.91 35.387-167.47 48.383-266.28 36.574-48.215-5.8438-117.95-62.734-147.2-109.43 71.797 11.41 151.56 16.105 239.89 14.027 78.66-1.8477 137.86-7.6211 191.91-18.73 22.586-4.6445 44.879-10.645 66.816-17.902-14.707 29.438-62.766 84.602-85.137 95.461zm321.8-265.74c-0.20312 0.16797-0.39453 0.34766-0.57422 0.52734-87.516 86.566-193.66 144.62-306.96 167.9-52.836 10.859-110.93 16.5-188.33 18.324-238.43 5.6055-412.99-38.016-533.63-133.49 85.043-39.77 169.26-56.676 248.5-70.273 2.6758 1.6445 6.0234 3.1562 10.234 4.5977 0.30078 0.097656 0.60156 0.19141 0.89844 0.26562 27.695 6.6953 54.77 12.238 81.301 16.656 173.28 28.824 322.4 8.9531 453.76-60.168 68.723 9.4805 150.04 23.543 235.87 54.742-0.35547 0.32422-0.71875 0.625-1.0664 0.91406z"/>
  <path d="m421.21 624.5-110.84 77.016c-4.5703 3.1797-5.6992 9.457-2.5312 14.027 1.6211 2.3281 4.0312 3.7695 6.625 4.1875 2.4961 0.42188 5.1602-0.10938 7.4023-1.668l110.84-77.004c4.5703-3.1797 5.7109-9.457 2.5312-14.039-3.1797-4.5586-9.4531-5.6875-14.027-2.5195z"/>
  <path  d="m363.02 621.96c-3.3359-4.4531-9.6484-5.3633-14.113-2.0273-33.59 25.129-69.301 48.07-106.14 68.184-4.8828 2.6641-6.6836 8.7969-4.0195 13.68 1.5469 2.832 4.2461 4.6211 7.1992 5.1133 2.1484 0.35938 4.4297 0.023438 6.4805-1.0938 37.68-20.578 74.207-44.039 108.56-69.742 4.457-3.3398 5.3672-9.6641 2.0312-14.113z"/>
  <path d="m310.33 612.21c-2.3047-5.0742-8.2695-7.3203-13.344-5.0273-37.789 17.113-75.395 35.879-111.77 55.777-4.8828 2.6758-6.6836 8.7969-4.0078 13.68 1.5469 2.832 4.2461 4.6211 7.1992 5.1133 2.1484 0.35938 4.4297 0.023438 6.4805-1.1055 35.941-19.656 73.094-38.195 110.43-55.094 5.0625-2.2891 7.3203-8.2656 5.0156-13.344z"/>
  <path d="m942.23 625.44c58.586 32.914 116.91-22.801 102.54-34.727-14.363-11.93-169.31-39.07-169.31-39.07-62.746 24.992 8.1992 40.879 66.77 73.797z"/>
 </g>
</svg>
